<?xml version="1.0" encoding="UTF-8"?>
<svg xmlns="http://www.w3.org/2000/svg" baseProfile="tiny" version="1.2" viewBox="0 0 2000 2000">
  <!-- Generator: Adobe Illustrator 28.7.5, SVG Export Plug-In . SVG Version: 1.2.0 Build 176)  -->
  <g>
    <g id="Ebene_2">
      <path d="M1004.99,24.4C467.53,24.4,31.83,460.1,31.83,997.56s435.7,973.16,973.16,973.16,973.16-435.7,973.16-973.16S1542.45,24.4,1004.99,24.4ZM1528.02,1007.64l-113.8,113.8c-.79.79-1.66,1.47-2.57,2.04l-517.29,517.29c-5.79,5.79-15.18,5.79-20.97,0l-127.79-127.79c-5.79-5.79-5.79-15.18,0-20.97l509.11-509.11-493.79-493.79c-5.79-5.79-5.79-15.18,0-20.97l113.8-113.8c5.79-5.79,15.18-5.79,20.97,0l632.32,632.32c5.79,5.79,5.79,15.18,0,20.97Z" fill="#fff"/>
    </g>
  </g>
</svg>