<?xml version="1.0" encoding="UTF-8"?>
<svg xmlns="http://www.w3.org/2000/svg" baseProfile="tiny" version="1.2" viewBox="0 0 2000 2000">
  <!-- Generator: Adobe Illustrator 28.7.5, SVG Export Plug-In . SVG Version: 1.2.0 Build 176)  -->
  <g>
    <g id="Ebene_1">
      <path d="M774.99,1457.56c14.31,63.02,20.31,130.17,33.4,194.16,6.6,73.39,5.75,148.71-6.25,220.36-4.35,28.56-42.38-.33-43.9,30.93-.33,25.73,29.34,34.23,51.03,35.86,77.55,13.03,35.56-87.06,57.04-118.06,1.36,33.46,7.42,71.49,5.17,103.02,21.7-99.87,4.27-209.68-20.04-313.25,19.4-68.03,14.43-177.03,72.05-219.66,44.86-24.1,26.84,29.3,29.13,56.91-30.94,181.26,73.2,404.54-51.82,472.8-26.32,7.44-8.23,31.72,8.37,38.67,44.6,24.97,55.54,4.72,87.92-8.95,10.42-22.49.93-55.1,7.94-80.2,1.5-12.31,4.23-10.17,6.18,1.49,4.35,12.52-1.08,97.29,7.55,59.31,2.78-28.78-2.11-62.81-1.77-93.55-51.96-127.7,46.98-326.21,24.6-457.17,1.27-43.75,73.11-69.39,106.83-45.44,37.67,36.65,290.63,93.37,165.18-19.08-65.76-90.27-70.18-218.71-150.95-300.27-50.63-56.27-131.09-100.01-169.85-162.1,1.53-23.9-4.82-89.84,35.84-71.77,205.14,93.07,90.54-109.52,81.36-217.56,416.43,220.5-41.92,356.13,188.56,352.87,167.19-92.44,37.73-282.24-7.75-376.77,14.11,16.83,225.71-17.75,164.28-33.3-176.72,63.71-286.98-70.96-198.97-234.87,47.05-176.65-76.57-323.54-237.07-198.08-105.15-67.6-308.01,68.85-223.73,194.1-30.39,57.03-5.68,208.78,85.45,150.17,18.93-12.48,8.54,10.43,5.1,19.49-7.11,43.18-40.92,17.86-70.16,21.87-81.47,31.47-40.56,163.59-84.98,227.32-9.43,10.61-16.21,60.18-29.34,52.38-3.54-41.82-44.2-123.06-66.64-199.53,5.39-20.84,26.67-30.42,41.53-42.03-11.19-6.15,4.19-15.9,9.43-21.41,24.77-23.17,87.87-41.07,58.26-84.96-30.82-31.94-82.19-3.6-80.36,38.31-6.94,22.51-26.62,12.08-38.17,24.2-18.15,19.84-43.73,33.29-52.4,59.88-12.74,13.94-14.82,41.92,11.02,30.28,29.71-2.04.93,44.62,10.75,63.71,53.18,215.27,102.77,357.72,229.28,94.2-8.74,50.32,29.04,108.4,8.83,140.5-27.61,28.49-38.28,73.91-61.46,107.02-131.11,103.93-171.07,271.38-276.49,396.13-95.01,179.25,199.06,61.1,280.01,112.06ZM644.79,686.95c.14.27,4.18,14.47.73,6.03-.53-1.91-.66-4.05-.73-6.03ZM1060.1,456.72c1.9,15.33-13.54,8.37-23.24,7.04-89.11-2.76-46.61-131.95,12.97-151.7,56.48-30.34,47.24-131.12,15.48-174.23,166.58,13.91-16.36,203.98-5.21,318.9ZM1119.96,77.04c-8.1.31-20.19,2.73-7.36-4.61,142.82-66.08,150.16,175.54,108.85,275.22,4.87-41.05,43.41-277.3-101.49-270.6ZM1152.61,526.96c70.1,19.02,153.45,66.75,166.79,140.14-9.84-6.09-18.38-23.71-29.5-31.47-34.69-29.83-151-83.88-137.29-108.67Z" fill="#fff"/>
    </g>
    <g id="Ebene_2" display="none">
      <path d="M636.66,249.66c-13.4,7.39-23.38,19.87-30.63,33.35-15.63,29.1-19.63,63.18-18.39,96.19,1.24,33.01,7.4,65.62,10.86,98.47,2.58,24.48,3.52,50.04-5.7,72.87-8.43,20.86-24.52,37.47-39.16,54.54-39.28,45.79-70.77,99.64-82.63,158.79-4.77,23.78-6.24,48.88,1.27,71.95,13.14,40.36,50.56,67.02,85.73,90.79,12.52-14.33,25.04-28.66,37.55-42.99-22.11-22.69-44.31-45.81-60.32-73.15-16.01-27.34-25.49-59.72-19.98-90.93,5.64-31.97,26.56-59.76,52.44-79.36,25.88-19.6,56.52-31.87,87.33-42.08,13.38-4.43,27.52-8.92,37.08-19.27,6.97-7.54,10.76-17.45,13.6-27.32,15.9-55.18,5.71-117.28-26.97-164.5-10.63-15.36-24.18-31.51-21.96-50.05,1.89-15.74,14.76-27.67,27.4-37.24,12.99-9.84,32.42-18.49,44.12-7.16-4.94-4.78,2.72-23.23-1.37-30.12s-19.75-11.59-27-14.2c-20.36-7.33-43.71-9.38-63.28,1.41Z" fill="#1d1d1b" stroke="#1d1d1b" stroke-miterlimit="10"/>
      <path d="M717.83,329.81c1.9-14.54-2.95-29.88,1.87-43.73,2.9-8.32,8.97-15.07,14.9-21.58,9.18-10.08,18.39-20.2,28.93-28.85,6.86-5.63,14.38-10.69,22.86-13.33,11.74-3.66,24.47-2.43,36.43.41,19.06,4.52,36.94,12.94,54.42,21.78,14.76,7.46,29.58,15.43,41.27,27.13,13.09,13.12,21.47,30.15,28.58,47.26,5.6,13.48,10.57,28.86,4.9,42.31-4.14,9.8-13.45,17.04-16.24,27.31-17.75-12.33-40.92-16.53-61.86-11.21-21.31,5.41-39.94,19.98-61.79,22.38-17.1,1.87-34.03-3.97-50.08-10.16-5.31-2.05-10.73-4.22-14.96-8.03-3.64-3.28-6.18-7.59-8.62-11.85-4.65-8.1-9.16-16.33-12.4-25.09-5.71-15.46-7.3-32.42-4.54-48.66" fill="#1d1d1b" stroke="#1d1d1b" stroke-miterlimit="10"/>
      <path d="M758.21,261.45c-9.07-12.71-18.53-25.14-28.37-37.27-4.88-6.01-9.95-12.04-16.45-16.24-10.27-6.64-23.04-8.05-35.27-8.16-21.52-.19-43.38,3.23-62.69,12.71s-35.91,25.46-43.56,45.57c-9.09,23.88-4.97,50.48-7.07,75.94-.89,10.82-2.93,21.59-2.56,32.44.29,8.54,2.08,16.96,4.13,25.26,8.55,34.61,21.83,68.05,39.34,99.11-10.02-30.76-17.77-62.26-23.17-94.16-2.04-12.04-3.75-24.16-4.42-36.36-.56-10.18-.4-20.39.1-30.57,1.07-22.06,3.88-44.64,14.21-64.17s29.55-35.58,51.61-36.73c17.36-.9,34.02,7.32,47.78,17.95s25.4,23.72,38.75,34.86c13.34,11.14,29.14,20.52,46.49,21.57" fill="#1d1d1b" stroke="#1d1d1b" stroke-miterlimit="10"/>
      <path d="M687.41,453.41c11.11,14.54,19.11,31.25,25.21,48.5,9.19,26,14.06,55.06,4.48,80.91-8.04,21.67-25.39,38.68-44.3,51.97s-39.78,23.58-58.9,36.57c-17.26,11.73-33.05,25.63-46.71,41.4-20.7,23.89-37.01,55.27-30.52,86.2,4.24,20.22,17.78,37.8,20.56,58.27-20.08-13.37-38.46-29.29-54.56-47.25-2.98-3.33-5.92-6.77-7.85-10.8-2.16-4.51-2.95-9.56-3.14-14.55-.76-20.31,8.03-39.67,17.46-57.68,8.42-16.09,17.68-32.07,30.75-44.68,33.93-32.74,89.49-39.21,116.65-77.76,18.46-26.2,18.86-60.69,17.51-92.71" fill="#1d1d1b" stroke="#1d1d1b" stroke-miterlimit="10"/>
      <path d="M918.54,342.79c7.6,13.67,6.67,30.39,11.36,45.31,5.52,17.59,18.87,32.86,19.79,51.27,1.06,21.33-14.69,39.33-22.49,59.2-3.75,9.54-6.43,20.72-15.24,25.96-6.97,4.14-15.97,3.15-23.44-.02-7.47-3.17-13.93-8.25-20.92-12.38-9.54-5.63-20.08-9.47-29.35-15.53-12.66-8.29-22.36-20.34-31.05-32.72-26.17-37.25-45.32-79.42-56.13-123.64" fill="#1d1d1b" stroke="#1d1d1b" stroke-miterlimit="10"/>
      <path d="M753.3,302.28c-13.84,9.2-22.2,26.06-21.16,42.64.8,12.72,6.62,24.5,10.69,36.58,5.25,15.58,7.67,31.94,10.06,48.21" fill="none" stroke="#1d1d1b" stroke-miterlimit="10"/>
      <path d="M849.58,479.25c-.4,25.88,9.28,51.79,26.54,71.08,1.48,1.65,3.09,3.31,5.16,4.07l-118.05,7.98c15.7-11.92,23.06-32.73,21.88-52.41s-9.99-38.26-21.56-54.21c-4.24-5.84-8.87-11.41-12.85-17.44-5.87-8.88-10.26-18.65-14.37-28.47-5.76-13.78-11-27.77-15.71-41.94-3.79-11.39-7.25-23-8.18-34.96-.54-7.04-.15-14.35,2.79-20.77,5.64-12.31,19.19-18.75,32.06-22.98" fill="#1d1d1b" stroke="#1d1d1b" stroke-miterlimit="10"/>
      <path d="M722.26,293.67c-9.42,18.19-16.04,37.83-19.55,58.01-2.93,16.88-3.57,34.88,3.46,50.5,9.29,20.63,32.35,34.17,54.89,32.22,3.2-.28,6.52-.9,9.07-2.86,3.2-2.48,4.59-6.61,5.51-10.55,4.61-19.6,2.01-40.42-4.83-59.35s-17.77-36.14-29.92-52.19c-5.08-6.71-10.59-13.42-18-17.4-2.1-1.13-4.48-2.03-6.82-1.59-3.52.67-5.78,4.12-7.11,7.45-2.61,6.56-3.24,13.72-3.75,20.76-1.16,16.05-1.81,32.56,3.24,47.84,5.05,15.28,16.97,29.25,32.77,32.32" fill="#1d1d1b" stroke="#1d1d1b" stroke-miterlimit="10"/>
      <path d="M993.94,481.59c10.38-1.93,21.51.5,30.14,6.59,8.63,6.09,14.66,15.75,16.32,26.18.76,4.74.6,9.8-1.58,14.07-1.88,3.68-5.09,6.49-8.41,8.95-7.4,5.49-16.42,9.87-25.53,8.54-14.18-2.06-32.86-18.37-36.31-32.55-3.76-15.44,11.59-29.22,25.37-31.78Z" fill="#1d1d1b" stroke="#1d1d1b" stroke-miterlimit="10"/>
      <path d="M1026.52,518.05c14.99,7.91,28.77,18.12,40.71,30.15,5.79,5.84,11.15,12.1,17.1,17.77,10.72,10.2,23.26,18.38,33.69,28.87,1.27,1.27,2.52,2.61,3.26,4.25,2.11,4.66-.5,9.98-3.04,14.41-1.14,1.99-2.64,4.22-4.93,4.39-1.39.1-2.69-.61-3.9-1.3-12.5-7.11-25.01-14.23-36.94-22.25-10.84-7.28-21.18-15.28-31.51-23.27-9.29-7.19-18.57-14.37-27.86-21.56-5.28-4.09-11.04-9.05-11.31-15.72-.34-8.16,7.52-13.97,14.49-18.23" fill="#1d1d1b" stroke="#1d1d1b" stroke-miterlimit="10"/>
      <path d="M1055.1,539.64c1.37-1.71,2.76-3.43,4.51-4.76,1.01-.77,2.31-1.41,3.52-1.01.68.23,1.21.76,1.7,1.28,1.38,1.47,2.7,3.03,3.49,4.88s.99,4.04.12,5.86c-.82,1.71-2.45,2.88-4.09,3.83-1.16.67-2.37,1.28-3.6,1.81-.38.17-.78.33-1.19.38-.69.09-1.4-.12-2.03-.43-2.78-1.38-4.17-4.47-6.17-6.83" fill="#1d1d1b" stroke="#1d1d1b" stroke-miterlimit="10"/>
      <path d="M1067.88,557.98c1.31-.89,2.51-1.96,3.54-3.16.88-1.02,1.67-2.15,2.76-2.94.68-.5,1.46-.84,2.26-1.14,1.16-.44,2.37-.78,3.59-1.01.91-.18,1.9-.29,2.74.1,1.47.68,1.91,2.51,2.35,4.06.34,1.21.79,2.42.79,3.68,0,1.59-.72,3.09-1.63,4.39-.91,1.3-2.03,2.44-2.99,3.71.41-.58.82-1.16,1.23-1.73,1.06-1.49,2.16-3.03,3.74-3.95,1.53-.89,1.87-1.03,3.62-.83s2.08.37,3.57,1.33c.96.62,1.68,1.5,1.83,1.69.19.25.55,1.69.6,1.99.15.91.53,2.07-.95,3.73-1.17,1.32-2.8,2.17-4.49,2.68s-3.46.7-5.22.89" fill="#1d1d1b" stroke="#1d1d1b" stroke-miterlimit="10"/>
      <path d="M1095.96,578.76l5.08-5.03c.75-.74,1.6-1.53,2.66-1.58.58-.02,1.14.19,1.67.43.44.2.88.43,1.17.81.35.46.43,1.07.49,1.65.13,1.31.22,2.62.25,3.93.03,1.42,0,2.86-.44,4.21-.57,1.72-1.78,3.15-3.06,4.43-1.18,1.18-2.45,2.28-3.8,3.27-1.53-.91-2.29-2.74-2.55-4.51s-.14-3.57-.42-5.34" fill="#1d1d1b" stroke="#1d1d1b" stroke-miterlimit="10"/>
      <path d="M1064.71,537.2c3.64,2.28,7.04,5.06,9.48,8.6,1.31,1.9,2.32,3.99,3.44,6.01,2.34,4.21,5.25,8.21,9.15,11.05,3.23,2.35,7,3.82,10.7,5.3,1.87.75,3.78,1.54,5.24,2.92,1.46,1.38,2.4,3.51,1.83,5.44-.75,2.54-3.83,3.76-6.46,3.38s-4.89-1.94-7.12-3.38c-5.92-3.81-12.2-7.03-18.07-10.91s-11.41-8.52-15.12-14.5c-1.12-1.79-2.07-3.74-2.39-5.82-.32-2.09.06-4.35,1.38-6" fill="#1d1d1b" stroke="#1d1d1b" stroke-miterlimit="10"/>
      <path d="M1039.03,582.83c3.73,1.86,7.93,2.88,11.26,5.4,7.63,5.79,8.44,17.71,16.14,23.41,3.12,2.3,7.01,3.28,10.83,3.93,3.81.65,7.73,1.01,11.54.31s7.51-2.56,9.8-5.68c4.02-5.49,2.67-13.45-1.06-19.13-3.73-5.69-9.38-9.77-14.46-14.29-6.81-6.07-13.51-13.49-22.56-14.64-4.77-.61-9.77.76-13.57,3.7-2.14,1.66-3.87,4.47-6.39,5.53-1.64.69-3.68-.03-5.21.92-5.16,3.21.35,8.89,3.68,10.55Z" fill="#1d1d1b" stroke="#1d1d1b" stroke-miterlimit="10"/>
      <path d="M1040.82,584.36c-1.96-1.06-3.84-2.25-5.8-3.31-3.39-1.84-7.05-3.3-9.98-5.82-.22-.19-.46-.47-.36-.74.11-.28.49-.32.79-.26.69.12,1.32.45,1.97.72,1.37.55,2.85.78,4.26,1.21,2.84.86,5.39,2.49,7.81,4.21" fill="#1d1d1b" stroke="#1d1d1b" stroke-miterlimit="10"/>
      <path d="M996.54,778.73c-2.55-31.14-15.98-60.55-24.19-90.69-7.7-28.28-9.88-57.51-14.07-86.52-1.3-9.03-2.05-18.27-5.39-26.75-3.17-8.07-8.62-15.16-15.26-20.73-4.61-3.87-9.92-7.09-15.8-8.36-10.56-2.29-21.29,1.84-31.7,4.73s-22.64,4.21-31.07-2.56l19.76,18.58c9.93,63.93,20.13,128.78,46.99,187.64,12.87,28.2,29.43,54.69,40.68,83.58,4.07,10.47,2.21,3.28,11.03,10.24,6.59,5.2,14.35,8.29,22.68,9.36,10.32,1.32,14.12-11,24.46-12.07,3.32-.34,6.85-.91,9.32-3.15,1.9-1.72,2.9-4.18,3.83-6.57,32.08-82.45,57.65-142.14,53.1-230.5l-30.6-9.53c4.66,19.64,7.23,39.77,7.68,59.94.19,8.58,0,17.2-1.35,25.67-1,6.35-2.64,12.58-4.28,18.8-4.94,18.78-9.97,37.79-19.42,54.76-6.23,11.18-26.32,6.3-34.31,16.3-4.57,5.72-9.14,11.45-13.71,17.17-1.07-15.13,3.97-14.81-7.15-25.12" fill="#1d1d1b" stroke="#1d1d1b" stroke-miterlimit="10"/>
      <path d="M1065.84,609.54c.35,33.46-2.29,66.96-7.88,99.95-2.41,14.23-5.38,28.61-3.94,42.97.19,1.85.47,3.76,1.48,5.33s2.95,2.67,4.74,2.16c1.45-.41,2.45-1.73,3.18-3.05,1.1-1.98,1.86-4.14,2.59-6.29,6.09-18.12,9.96-36.97,11.52-56.02.85-10.4,1.01-20.84,1.17-31.28.22-14.36.41-28.89-2.96-42.85" fill="#1d1d1b" stroke="#1d1d1b" stroke-miterlimit="10"/>
      <path d="M965.79,683.73c1.1,19.27,20.29,34,27.27,51.99,9.46,24.38,14.27,50.28,18.55,76.08.88,5.33,1.75,10.71,1.42,16.11-.07,1.13-.3,2.42-1.29,2.97-.62.34-1.37.28-2.07.18-5.05-.72-9.71-3.1-14.03-5.8-17.14-10.7-30.53-26.87-39.34-45.05-8.81-18.18-13.17-38.31-14.34-58.48" fill="#1d1d1b" stroke="#1d1d1b" stroke-miterlimit="10"/>
      <path d="M781.24,557.39c-9.65,3.31-20.26,3.72-30.14,1.19-8.15-2.09-16.6-6.16-24.56-3.46-7.21,2.45-11.52,9.69-14.84,16.54-23.72,49.04-28.31,104.91-44.49,156.92-6.71,21.57-15.52,42.96-16.37,65.54-.34,8.96,1.2,19.09,8.42,24.42,9.16,6.76,22.39,2.19,31.42-4.73,25.2-19.31,34.95-52.6,39.26-84.06,4.31-31.45,4.89-64.17,17.83-93.16,3.79-8.5,8.59-16.51,12.55-24.94,6.4-13.61,10.59-28.26,12.36-43.2" fill="#1d1d1b" stroke="#1d1d1b" stroke-miterlimit="10"/>
      <path d="M803.06,874.33c33.22,3.26,67.34-3.28,97-18.59,5.76-67.08,11.53-134.16,17.29-201.24,1.74-20.2,3.28-41.55-5.54-59.81-4.76-9.86-12.25-18.12-20.02-25.83-5.42-5.38-11.19-10.67-18.21-13.69-7.57-3.26-16.03-3.63-24.27-3.85-21.87-.58-43.76-.4-65.64-.22-10.79.09-21.79.21-32.02,3.65-22.18,7.44-36.39,28.66-47.93,49.01-9.53,16.81-18.48,34.17-23.44,52.85-4.96,18.68-5.7,38.94,1.01,57.06,8.17,22.08,26.35,38.8,44.79,53.44s38.16,28.49,51.55,47.86" fill="#1d1d1b" stroke="#1d1d1b" stroke-miterlimit="10"/>
      <path d="M650.71,981.7c-51,54.49-77.46,127.04-99.6,198.3-5.07,16.33-10.41,33.43-22.56,45.47-14.11,13.98-37.73,22.46-39.46,42.25,18.74,22.36,53.81,19.09,81.8,10.85,29.05-8.55,57.15-20.31,83.63-34.98,9.06-5.02,18.76-10.58,29.07-9.45,8.88.98,16.36,6.75,23.87,11.58,56.66,36.48,136.8,27.96,186.24,73.75,8.19,7.58,15.56,16.68,25.93,20.82,11.7,4.67,24.89,2.12,37.23-.39,36.28-7.38,73.2-13.87,110.13-11.3,24.13,1.68,47.9,7.21,72.07,8.24,14.54.62,30.43-.92,41.06-10.85,13.57-12.68,13.51-34.92,5.79-51.81-7.72-16.89-21.42-30.14-33.3-44.43-57.81-69.52-75.05-167.73-139.23-231.41-16.9-16.77-36.69-30.7-51.57-49.28-24.44-30.51-33.8-71.26-59.56-100.67-4.62-5.28-10.04-10.31-16.81-12.13-6-1.61-12.37-.52-18.47.69-18.78,3.71-37.37,8.42-55.66,14.1s-23.67,9.8-35.57,22.49c-24.04,25.63-53.24,45.98-80.5,67.93-15.59,12.55-30.84,25.6-44.53,40.24Z" fill="#1d1d1b" stroke="#1d1d1b" stroke-miterlimit="10"/>
      <path d="M650.11,798.81c1.13,13.32,15.77,21.3,29.04,22.95,26.53,3.3,52.52-8.65,75.38-22.5,22.76-13.79,44.12-29.73,65.44-45.65,13.31-9.94,26.81-20.06,36.83-33.32,4.43-5.87,8.04-14.43,3.37-20.11-3.5-4.27-9.87-4.49-15.37-4.02-22.4,1.91-43.91,9.3-65.16,16.63-32.14,11.09-64.62,22.34-93.3,40.59" fill="#1d1d1b" stroke="#1d1d1b" stroke-miterlimit="10"/>
      <path d="M1066.43,611.64c-8.48,65.74-60.5,118.69-64.64,184.85-.28,4.54,7.64,11.17,12.07,12.22,3.88.92,7.17-2.8,9.36-6.13,33.46-50.85,50.76-112.57,46.3-173.27" fill="#1d1d1b" stroke="#1d1d1b" stroke-miterlimit="10"/>
      <path d="M792.41,554.37c-3.73-2.05-8.2-2.08-12.46-2.06-9.45.05-18.9.1-28.35.15" fill="none" stroke="#1d1d1b" stroke-miterlimit="10"/>
      <path d="M793.82,496.12c-4.42,8.31-6.82,17.53-10.38,26.24s-8.63,17.3-16.68,22.19c-17.8,10.81-43.9.28-59.93,13.58-8.39,6.96-11.23,18.41-13.6,29.05-10.38,46.64-20.79,93.56-22.92,141.29-.26,5.71-.2,12.01,3.5,16.36,3.2,3.77,8.54,5.16,13.47,4.74,4.93-.42,9.57-2.41,14.08-4.43,17.88-8.02,35.53-17.2,50.06-30.35,14.55-13.17,25.42-29.83,38.31-44.62,10.51-12.06,22.58-23.15,29.84-37.4,4.74-9.32,7.22-19.59,9.66-29.76,3.4-14.15,6.79-29.02,3.04-43.08" fill="#1d1d1b" stroke="#1d1d1b" stroke-miterlimit="10"/>
      <path d="M764.71,759.03c1.2,17.59,6.67,34.58,9.64,51.96,3.39,19.83,3.51,40.08,2.71,60.19-.38,9.47.03,20.88,8.17,25.72,6.86,4.08,15.63,1.12,22.82-2.36,4.19-2.03,8.46-4.34,11.19-8.11,2.63-3.63,3.54-8.19,4.31-12.6,5.12-29.29,6.86-60.61-5.49-87.66-9.48-20.76-26.38-37.05-42.89-52.81" fill="#1d1d1b" stroke="#1d1d1b" stroke-miterlimit="10"/>
      <path d="M727.34,1197.63c-1.27,58.56,11.52,116.41,24.3,173.58,17.48,78.19,35.07,156.35,52.76,234.49,2.95-118.48,3.93-237.01,2.96-355.52" fill="#1d1d1b" stroke="#1d1d1b" stroke-miterlimit="10"/>
      <path d="M824.7,1199.75c29.91,98.14,52.22,198.41,74.51,298.55,6.62,29.76,13.29,60.06,10.9,90.46,12.76-71.39,22.43-143.28,32.1-215.15,5.1-37.88,10.19-75.77,13.33-113.86,2.42-29.45,3.56-59.82-5.94-87.8" fill="#1d1d1b" stroke="#1d1d1b" stroke-miterlimit="10"/>
      <path d="M770.53,1738.59l-.5-66c-.04-5.82-.14-11.87-2.74-17.07-1.8-3.6-4.69-6.56-6.43-10.19-2.3-4.81-2.38-10.37-2.05-15.69.78-12.79,10.73-26.92,13.54-39.42,10.83-48.21-47.79-249.93-36.95-298.14l72.32,85.31c-5.92,53.13-8.61,101.67-2.16,164.23,4.71,45.68-1.82,89.66,5.63,134.97,1.29,7.84,3.16,15.77,7.36,22.52s11.1,12.22,19.02,12.95c7.44.69,15.43-2.69,22.17.54,1.46.7,2.79,1.71,3.75,3.02,3.83,5.26.28,12.69-4.07,17.54-19.61,21.83-56.62,24.97-79.62,6.75,7.55-14.27,18.09-29.52,34.08-31.7,14.75-2.02,29.45,8.06,44.02,5" fill="#1d1d1b" stroke="#1d1d1b" stroke-miterlimit="10"/>
      <path d="M887.42,1421.11c4.06,50.24-1.98,101.27-17.67,149.17-4.8,14.65-10.06,32.14-.53,44.24,2.86,3.63,6.84,6.34,9.35,10.22,2.87,4.44,3.52,9.93,3.99,15.2,1.09,12.28,1.63,24.61,1.62,36.94-.02,13.62-.63,27.73,4.57,40.32,1.29,3.12,3.03,6.22,5.85,8.08,3.49,2.3,7.98,2.31,12.16,2.1,14.34-.72,28.59-3,42.44-6.77,3.26-.89,6.57-1.9,9.24-3.97,7.27-5.64,7.08-16.48,6.21-25.63-.25-2.64-.67-5.59-2.77-7.19-1.64-1.25-3.88-1.32-5.94-1.22-6.41.28-12.78,1.58-18.8,3.82-1.73.65-3.64,1.38-5.37.72-2.32-.88-3.09-3.72-3.52-6.17-6.55-37.74-6.09-76.3-5.6-114.6.78-61.71,1.56-123.42,2.34-185.13" fill="#1d1d1b" stroke="#1d1d1b" stroke-miterlimit="10"/>
      <path d="M757.95,1632.26c-.1,34.48-.19,68.97-.29,103.45,1.27-.15,2.59.07,3.74.63.21-12.67.28-25.34.22-38.01-.07-14.72-.24-29.9,5.38-43.5,1.76-4.26,4.07-8.3,5.57-12.66.76-2.21,1.31-4.63.6-6.86-.79-2.5-2.97-4.25-5.04-5.86" fill="#1d1d1b" stroke="#1d1d1b" stroke-miterlimit="10"/>
      <path d="M865.16,1595.81c-.19,14.71-.37,29.47,1.32,44.09,1.49,12.86,4.42,25.54,5.24,38.46.27,4.32.31,8.65.35,12.98.08,9.66.16,19.32.24,28.97,1.08,0,2.16,0,3.24,0-.83-21.83-.84-43.69-.85-65.54,0-9.1,0-18.25,1.32-27.26,1.11-7.57,3.16-15.11,2.72-22.75-.04-.71-.11-1.44-.39-2.1-1.21-2.77-5.26-2.66-7.57-4.61" fill="#1d1d1b" stroke="#1d1d1b" stroke-miterlimit="10"/>
      <path d="M608.14,388.34c-.4,34-.95,68.31-8.66,101.43-7.71,33.12-23.22,65.39-49.1,87.45-8.85,7.54-18.92,13.85-30.04,17.24-15.81,4.81-32.79,3.51-49.14,1.12-15.99-2.34-31.81-5.67-47.62-9.01-10.36-2.18-20.71-4.36-31.07-6.55-1.59,6.38,5.45,11.32,11.48,13.96,27.56,12.05,57.27,20.11,87.35,19.86,22.1-.19,43.91-4.83,65.41-9.95,30.68-7.3,63.39-17.1,82.52-42.17,17.7-23.21,19.8-54.4,20.63-83.58.61-21.23.88-42.85-4.99-63.26" fill="#1d1d1b" stroke="#1d1d1b" stroke-miterlimit="10"/>
    </g>
  </g>
</svg>